<svg width="70" height="98" viewBox="0 0 70 98" fill="none" xmlns="http://www.w3.org/2000/svg">
<g clip-path="url(#clip0_10_10)">
<path d="M17.3754 97.3308C26.9633 97.3308 34.7448 90.0634 34.7448 81.109V64.8872H17.3754C7.78748 64.8872 0.00598145 72.1546 0.00598145 81.109C0.00598145 90.0634 7.78748 97.3308 17.3754 97.3308Z" fill="#0ACF83"/>
<path d="M0.00598145 48.6651C0.00598145 39.7107 7.78748 32.4434 17.3754 32.4434H34.7448V64.8869H17.3754C7.78748 64.8869 0.00598145 57.6196 0.00598145 48.6651Z" fill="#A259FF"/>
<path d="M0.00390625 16.2218C0.00390625 7.26736 7.7854 0 17.3733 0H34.7427V32.4436H17.3733C7.7854 32.4436 0.00390625 25.1762 0.00390625 16.2218Z" fill="#F24E1E"/>
<path d="M34.7457 0H52.1151C61.7031 0 69.4846 7.26736 69.4846 16.2218C69.4846 25.1762 61.7031 32.4436 52.1151 32.4436H34.7457V0Z" fill="#FF7262"/>
<path d="M69.4845 48.6651C69.4845 57.6196 61.7031 64.8869 52.1151 64.8869C42.5272 64.8869 34.7457 57.6196 34.7457 48.6651C34.7457 39.7107 42.5272 32.4434 52.1151 32.4434C61.7031 32.4434 69.4845 39.7107 69.4845 48.6651Z" fill="#1ABCFE"/>
</g>
<defs>
<clipPath id="clip0_10_10">
<rect width="69.4915" height="97.3307" fill="white"/>
</clipPath>
</defs>
</svg>
