<svg width="105" height="106" viewBox="0 0 105 106" fill="none" xmlns="http://www.w3.org/2000/svg">
<g filter="url(#filter0_d_94_8)">
<path d="M4 0H100.242V97.3307H4V0Z" fill="#F7DF1E"/>
<path d="M29.3058 81.3365L36.6709 76.8289C38.0917 79.3766 39.3843 81.5322 42.4846 81.5322C45.4565 81.5322 47.3302 80.3566 47.3302 75.7836V44.6841H56.3745V75.9129C56.3745 85.3864 50.8835 89.6985 42.8724 89.6985C35.6373 89.6985 31.4374 85.9089 29.3056 81.3357" fill="black"/>
<path d="M61.2868 80.3564L68.651 76.0443C70.5896 79.2461 73.1091 81.5979 77.5665 81.5979C81.314 81.5979 83.7037 79.703 83.7037 77.0896C83.7037 73.9536 81.2489 72.8428 77.1142 71.014L74.8537 70.0333C68.3284 67.2245 63.9998 63.6965 63.9998 56.2482C63.9998 49.3881 69.168 44.1611 77.2437 44.1611C82.9935 44.1611 87.1281 46.1867 90.0995 51.4789L83.0577 56.052C81.5071 53.2429 79.8279 52.1324 77.2439 52.1324C74.5951 52.1324 72.9153 53.831 72.9153 56.052C72.9153 58.7961 74.5951 59.9071 78.4709 61.6059L80.7318 62.5858C88.4197 65.9181 92.7483 69.3151 92.7483 76.9589C92.7483 85.1916 86.3527 89.6992 77.7605 89.6992C69.3621 89.6992 63.9353 85.6487 61.287 80.3564" fill="black"/>
</g>
<defs>
<filter id="filter0_d_94_8" x="0" y="0" width="104.242" height="105.331" filterUnits="userSpaceOnUse" color-interpolation-filters="sRGB">
<feFlood flood-opacity="0" result="BackgroundImageFix"/>
<feColorMatrix in="SourceAlpha" type="matrix" values="0 0 0 0 0 0 0 0 0 0 0 0 0 0 0 0 0 0 127 0" result="hardAlpha"/>
<feOffset dy="4"/>
<feGaussianBlur stdDeviation="2"/>
<feComposite in2="hardAlpha" operator="out"/>
<feColorMatrix type="matrix" values="0 0 0 0 0 0 0 0 0 0 0 0 0 0 0 0 0 0 0.25 0"/>
<feBlend mode="normal" in2="BackgroundImageFix" result="effect1_dropShadow_94_8"/>
<feBlend mode="normal" in="SourceGraphic" in2="effect1_dropShadow_94_8" result="shape"/>
</filter>
</defs>
</svg>
