<svg width="106" height="97" viewBox="0 0 106 97" fill="none" xmlns="http://www.w3.org/2000/svg">
<path d="M0 48.2277C0 56.3588 7.80178 63.9495 20.1019 68.228C17.6457 80.8123 19.6617 90.9552 26.3955 94.9074C33.3171 98.9696 43.6286 96.1577 53.4155 87.4514C62.9556 95.8063 72.5975 99.0943 79.325 95.1308C86.2399 91.0569 88.3432 80.2261 85.819 67.249C98.6303 62.9384 105.797 56.4658 105.797 48.2277C105.797 40.2852 97.9803 33.4138 85.846 29.1626C88.5634 15.6492 86.2609 5.75243 79.2484 1.63695C72.4877 -2.33062 62.7338 1.12753 53.0534 9.70123C42.9826 0.600921 33.325 -2.17752 26.3193 1.94995C19.5651 5.92881 17.6378 16.256 20.1019 29.0733C8.21711 33.2904 0 40.3169 0 48.2277Z" fill="white"/>
<path d="M83.2748 33.384C82.3001 33.0426 81.2901 32.7195 80.2502 32.414C80.4212 31.7041 80.578 31.0034 80.7175 30.3146C83.007 19.0042 81.5101 9.89242 76.3983 6.89244C71.4968 4.01587 63.4807 7.01516 55.3849 14.1854C54.6064 14.8749 53.8257 15.6049 53.0453 16.3699C52.5254 15.8638 52.0063 15.3746 51.4885 14.9067C43.0038 7.23982 34.4992 4.00889 29.3925 7.01754C24.4956 9.90246 23.0455 18.4684 25.1064 29.1873C25.3054 30.2227 25.5381 31.2799 25.8011 32.3549C24.5975 32.7027 23.4355 33.0734 22.3237 33.4677C12.3763 36.9972 6.02344 42.5287 6.02344 48.2664C6.02344 54.1923 12.8432 60.1361 23.2042 63.7401C24.0218 64.0245 24.8703 64.2934 25.7446 64.5487C25.4608 65.7114 25.2139 66.8507 25.0067 67.962C23.0416 78.4949 24.5762 86.8584 29.46 89.7251C34.5046 92.6856 42.9707 89.6426 51.2145 82.3089C51.8661 81.7292 52.52 81.1144 53.1751 80.4701C54.0242 81.3022 54.8719 82.0897 55.7152 82.8284C63.7003 89.8214 71.5869 92.6453 76.4662 89.7706C81.5057 86.8016 83.1435 77.8171 81.0172 66.8861C80.8548 66.0513 80.6658 65.1984 80.4536 64.3304C81.0481 64.1515 81.6318 63.9668 82.2009 63.7748C92.9722 60.1429 99.9803 54.2715 99.9803 48.2664C99.9803 42.508 93.4225 36.9391 83.2748 33.384Z" fill="#53C1DE"/>
<path d="M80.9386 59.8976C80.4249 60.0707 79.8977 60.238 79.3605 60.4002C78.1715 56.5692 76.5666 52.4954 74.6027 48.2865C76.4768 44.1778 78.0196 40.1561 79.1754 36.3499C80.1365 36.633 81.0694 36.9315 81.9683 37.2465C90.6629 40.2926 95.9665 44.7963 95.9665 48.2666C95.9665 51.963 90.2388 56.7615 80.9386 59.8976ZM77.0797 67.6796C78.0199 72.5132 78.1542 76.8832 77.5314 80.2995C76.9718 83.3693 75.8465 85.416 74.455 86.2356C71.494 87.9799 65.1619 85.7126 58.3329 79.7321C57.55 79.0465 56.7615 78.3145 55.9704 77.5397C58.6179 74.593 61.2638 71.1674 63.8462 67.3629C68.3883 66.9527 72.6796 66.2821 76.5711 65.3666C76.7628 66.1534 76.933 66.9251 77.0797 67.6796ZM38.0555 85.9342C35.1625 86.974 32.8584 87.0038 31.4656 86.1865C28.502 84.4468 27.2699 77.7317 28.9505 68.724C29.143 67.6924 29.3721 66.6327 29.6362 65.5495C33.4851 66.4157 37.7449 67.039 42.2979 67.4146C44.8977 71.1374 47.62 74.5593 50.3635 77.5555C49.7641 78.1444 49.167 78.7051 48.5733 79.2334C44.9279 82.4762 41.2749 84.777 38.0555 85.9342ZM24.5024 59.875C19.9209 58.2814 16.1374 56.2102 13.544 53.9501C11.2137 51.9191 10.0371 49.9027 10.0371 48.2666C10.0371 44.7848 15.1378 40.3437 23.6449 37.3252C24.6771 36.9589 25.7577 36.6137 26.879 36.2895C28.0547 40.1817 29.597 44.251 31.4583 48.366C29.573 52.542 28.0088 56.6762 26.8215 60.614C26.0221 60.3802 25.2476 60.1341 24.5024 59.875ZM29.0455 28.403C27.2797 19.2193 28.4524 12.2914 31.4034 10.553C34.5467 8.70102 41.4975 11.3415 48.8233 17.9615C49.2916 18.3846 49.7617 18.8275 50.2332 19.2857C47.5033 22.2688 44.8059 25.665 42.2292 29.3659C37.8103 29.7827 33.5804 30.4523 29.6914 31.3489C29.4469 30.3479 29.2303 29.3645 29.0455 28.403ZM69.5742 38.5877C68.6445 36.9535 67.6901 35.3578 66.7171 33.8057C69.7149 34.1914 72.5871 34.7034 75.2844 35.3299C74.4746 37.9711 73.4653 40.7326 72.2772 43.5636C71.4249 41.9169 70.5235 40.2566 69.5742 38.5877ZM53.0467 22.205C54.8981 24.2462 56.7521 26.5252 58.5757 28.9979C56.7381 28.9096 54.8777 28.8636 53.0019 28.8636C51.1438 28.8636 49.2971 28.9085 47.4709 28.9953C49.2963 26.5456 51.1664 24.2697 53.0467 22.205ZM36.4133 38.616C35.4846 40.2549 34.5999 41.9061 33.761 43.5605C32.5922 40.7394 31.5922 37.9653 30.7754 35.2867C33.4562 34.6762 36.3148 34.177 39.2936 33.7986C38.3068 35.365 37.3445 36.9723 36.4133 38.6156V38.616ZM39.3794 63.026C36.3018 62.6765 33.4001 62.203 30.7201 61.6094C31.5499 58.8829 32.5719 56.0496 33.7656 53.1677C34.6066 54.8209 35.4948 56.4729 36.4292 58.1153H36.4294C37.3812 59.7885 38.3672 61.4276 39.3794 63.026ZM53.1577 74.6162C51.2554 72.5273 49.3578 70.2166 47.5046 67.7312C49.3037 67.803 51.1378 67.8398 53.0019 67.8398C54.917 67.8398 56.8102 67.7958 58.6736 67.7114C56.8439 70.2416 54.9966 72.5559 53.1577 74.6162ZM72.3155 53.0208C73.5713 55.9338 74.6299 58.7524 75.4705 61.4324C72.7463 62.0648 69.805 62.5742 66.706 62.9528C67.6814 61.3798 68.6442 59.7567 69.5903 58.0872C70.5474 56.3981 71.4562 54.7065 72.3155 53.0208ZM66.1135 56.0465C64.6448 58.6382 63.1369 61.1122 61.6061 63.4475C58.8181 63.6504 55.9376 63.7549 53.0019 63.7549C50.078 63.7549 47.2339 63.6625 44.4951 63.4816C42.9026 61.1156 41.362 58.6342 39.9027 56.0688H39.903C38.4475 53.5103 37.1079 50.9302 35.894 48.3646C37.1075 45.793 38.4436 43.2101 39.8908 40.6562L39.8905 40.6567C41.3414 38.096 42.8685 35.6267 44.4463 33.2756C47.2406 33.0606 50.1059 32.9484 53.0017 32.9484H53.0019C55.9107 32.9484 58.7798 33.0615 61.5732 33.2783C63.1269 35.6123 64.6436 38.0736 66.1003 40.6346C67.5735 43.2244 68.9268 45.7901 70.1507 48.3066C68.9305 50.8662 67.5802 53.4579 66.1135 56.0465ZM74.3935 10.4315C77.5398 12.278 78.7633 19.725 76.7865 29.4903C76.6604 30.1134 76.5184 30.7481 76.3642 31.3913C72.4662 30.4759 68.2333 29.7948 63.8015 29.3717C61.2198 25.6301 58.5444 22.2286 55.859 19.2838C56.581 18.577 57.302 17.903 58.02 17.2669C64.9565 11.1235 71.4396 8.69795 74.3935 10.4315Z" fill="white"/>
<path d="M53.0033 39.7283C57.6369 39.7283 61.3933 43.551 61.3933 48.2668C61.3933 52.9824 57.6369 56.8053 53.0033 56.8053C48.3697 56.8053 44.6133 52.9824 44.6133 48.2668C44.6133 43.551 48.3697 39.7283 53.0033 39.7283Z" fill="#53C1DE"/>
</svg>
