<svg width="103" height="98" viewBox="0 0 103 98" fill="none" xmlns="http://www.w3.org/2000/svg">
<path d="M94.8556 75.2785C89.2524 75.1439 84.9099 75.6838 81.2677 77.167C80.2171 77.5715 78.536 77.5719 78.3958 78.8529C78.9565 79.3928 79.0264 80.2694 79.5167 81.011C80.3577 82.3593 81.828 84.1806 83.1589 85.1249C84.6296 86.2037 86.1006 87.2825 87.6412 88.2268C90.3729 89.8454 93.4548 90.7893 96.1162 92.4079C97.6576 93.3513 99.1977 94.566 100.739 95.5775C101.509 96.1165 101.999 96.9935 102.98 97.3307V97.1285C102.49 96.5214 102.35 95.6448 101.86 94.9704C101.16 94.2961 100.459 93.689 99.7584 93.0146C97.7271 90.3848 95.2058 88.0918 92.4741 86.2037C90.2332 84.72 85.33 82.6969 84.4195 80.2017C84.4195 80.2017 84.3492 80.1344 84.2794 80.0671C85.8203 79.9322 87.6412 79.3928 89.1123 78.9879C91.4938 78.3808 93.6649 78.5157 96.1162 77.9091C97.2367 77.6392 98.3576 77.302 99.4781 76.9648V76.3581C98.2179 75.1439 97.307 73.5257 95.9761 72.3792C92.4042 69.4114 88.4817 66.5121 84.4195 64.0846C82.248 62.7358 79.4464 61.8588 77.1353 60.7127C76.2951 60.3074 74.8939 60.1056 74.404 59.4313C73.1429 57.9476 72.4425 55.9922 71.5321 54.2385C69.5016 50.5291 67.5397 46.4161 65.7887 42.5048C64.5286 39.8746 63.7579 37.2444 62.2169 34.8169C55.0029 23.3527 47.1584 16.4068 35.1115 9.59547C32.5199 8.17947 29.4385 7.57238 26.1465 6.83075C24.396 6.76305 22.6445 6.62852 20.8935 6.56083C19.7731 6.08868 18.6522 4.80765 17.6714 4.20055C13.68 1.77258 3.3836 -3.48697 0.441855 3.45892C-1.44931 7.84231 3.24344 12.158 4.85425 14.3837C6.04545 15.9347 7.58597 17.6878 8.42653 19.4415C8.9169 20.5871 9.05662 21.8017 9.54699 23.0155C10.6679 25.982 11.718 29.287 13.1891 32.0522C13.9598 33.4682 14.8 34.9519 15.7807 36.2329C16.3409 36.9746 17.3212 37.3122 17.5317 38.5259C16.5514 39.8747 16.4811 41.8978 15.9204 43.5837C13.3992 51.2039 14.3799 60.6451 17.9517 66.2422C19.0722 67.9277 21.734 71.6376 25.3059 70.2211C28.4577 69.0073 27.7573 65.1634 28.6677 61.7915C28.8782 60.9818 28.738 60.4428 29.1581 59.9034C29.1585 59.9707 29.1581 60.0384 29.1581 60.0384C30.1388 61.9265 31.1191 63.7474 32.0295 65.6355C34.201 68.9396 37.9829 72.3792 41.1347 74.6722C42.8163 75.8855 44.1468 77.9763 46.2479 78.7184V78.5157H46.1078C45.6873 77.9086 45.0572 77.6391 44.4969 77.167C43.2363 75.9532 41.8351 74.4695 40.8548 73.1208C37.9135 69.3441 35.3215 65.1634 33.0103 60.8473C31.8898 58.7569 30.9091 56.4639 29.9987 54.3735C29.5782 53.5638 29.5782 52.3504 28.8778 51.946C27.8272 53.4292 26.2867 54.7107 25.5159 56.5316C24.1859 59.4313 24.0453 63.0053 23.5549 66.7143C23.275 66.782 23.4148 66.7143 23.2746 66.8493C21.0337 66.3094 20.263 64.0846 19.4224 62.196C17.3212 57.4082 16.971 49.7202 18.7923 44.1908C19.2827 42.7744 21.3839 38.3237 20.5433 36.975C20.1232 35.6935 18.722 34.9519 17.9517 33.9403C17.0413 32.6589 16.0606 31.0406 15.4305 29.6242C13.7494 25.8479 12.9088 21.6668 11.088 17.8901C10.2474 16.1365 8.77673 14.316 7.58597 12.6978C6.25549 10.8769 4.78438 9.59547 3.73378 7.43741C3.38402 6.69578 2.89321 5.48201 3.45344 4.67268C3.59361 4.13328 3.8735 3.93105 4.43417 3.79609C5.3446 3.05403 7.93615 3.99831 8.84656 4.40276C11.4381 5.41388 13.6092 6.3586 15.7807 7.77459C16.761 8.44896 17.8115 9.73043 19.0722 10.0676H20.5433C22.7846 10.5393 25.3059 10.2026 27.4071 10.8092C31.1195 11.9553 34.4809 13.6417 37.493 15.4625C46.6684 21.0597 54.2322 29.0175 59.3454 38.5259C60.186 40.0765 60.5358 41.4933 61.3065 43.1115C62.7776 46.4161 64.5984 49.7879 66.0691 53.0248C67.5397 56.194 68.9405 59.4313 71.0417 62.0615C72.0927 63.4771 76.2947 64.2191 78.1858 64.9612C79.5866 65.5678 81.7581 66.1077 83.0187 66.8493C85.3998 68.2649 87.7813 69.884 90.0227 71.4349C91.1436 72.2438 94.6451 73.9302 94.8556 75.2785L94.8556 75.2785Z" fill="#00546B"/>
</svg>
