<svg width="31" height="31" viewBox="0 0 31 31" fill="none" xmlns="http://www.w3.org/2000/svg">
<path d="M0.12793 2.17813C0.12793 0.975181 1.10311 0 2.30606 0H28.3572C29.5602 0 30.5353 0.975181 30.5353 2.17813C30.5353 3.38108 29.5602 4.35626 28.3572 4.35626H2.30606C1.10311 4.35626 0.12793 3.38108 0.12793 2.17813Z" fill="white"/>
<path d="M0.219971 15.5192C0.219971 14.3162 1.19515 13.341 2.3981 13.341H28.3573C29.5602 13.341 30.5354 14.3162 30.5354 15.5192C30.5354 16.7221 29.5602 17.6973 28.3573 17.6973H2.3981C1.19516 17.6973 0.219971 16.7221 0.219971 15.5192Z" fill="white"/>
<path d="M0.219971 28.7513C0.219971 27.5483 1.19515 26.5731 2.3981 26.5731H28.3573C29.5602 26.5731 30.5354 27.5483 30.5354 28.7513C30.5354 29.9542 29.5602 30.9294 28.3573 30.9294H2.3981C1.19516 30.9294 0.219971 29.9542 0.219971 28.7513Z" fill="white"/>
</svg>
