<svg width="42" height="41" viewBox="0 0 42 41" fill="none" xmlns="http://www.w3.org/2000/svg">
<g clip-path="url(#clip0_20_689)">
<path d="M11.9052 0.220699C11.0576 1.76559 9.86478 4.35881 9.95895 4.46916C10.0217 4.54273 14.3851 4.63469 19.6431 4.65308C28.3697 4.68986 29.2016 4.70825 29.2487 4.98413C29.2801 5.16804 28.9975 5.84853 28.6522 6.52902C28.2913 7.2279 27.9303 7.96357 27.8518 8.16588C27.7576 8.38657 27.6007 8.75441 27.4751 8.9935C27.3652 9.25098 27.3024 9.52685 27.3338 9.60042C27.4594 9.83951 36.343 9.76595 36.343 9.52685C36.343 9.4165 36.139 8.91993 35.8722 8.42336C35.6053 7.94518 35.4013 7.46699 35.4013 7.37504C35.4013 7.30147 35.1973 6.87846 34.9304 6.47385C34.6793 6.05084 34.4596 5.64622 34.4596 5.59105C34.4596 5.51748 34.1614 4.87378 33.7847 4.1565C33.408 3.43923 33.0627 2.72196 32.9999 2.57483C32.9371 2.42769 32.7488 2.04147 32.5761 1.7472C32.4035 1.43455 32.1837 0.993147 32.1052 0.735664C32.0111 0.496574 31.8384 0.220699 31.7443 0.147133C31.6344 0.0735663 27.1612 0 21.7933 0C14.1496 0 11.9994 0.055175 11.9052 0.220699ZM7.05529 10.1706C6.92973 10.2625 6.75708 10.5016 6.6629 10.7223C6.58443 10.943 6.45886 11.2557 6.36469 11.4028C5.92522 12.1936 4.79514 14.4926 4.79514 14.6029C4.79514 14.6765 4.66958 14.9524 4.49693 15.2283C4.33998 15.5041 3.80633 16.5525 3.30407 17.564C2.80182 18.5755 2.33096 19.4215 2.25248 19.4583C2.03274 19.5687 2.11122 20.1204 2.47222 20.7825C3.13142 21.9964 3.2099 22.1619 3.36686 22.5665C3.64938 23.3022 4.32428 24.4608 4.46554 24.4608C4.54402 24.4608 4.77945 24.0562 4.99918 23.578C5.76826 21.8676 7.62033 18.0973 8.10689 17.2513C8.27954 16.9755 8.4051 16.6996 8.4051 16.6444C8.4051 16.5892 8.93875 15.5041 9.58226 14.2351C10.2258 12.9661 10.7594 11.881 10.7594 11.8074C10.7594 11.7522 10.9478 11.3844 11.1675 10.9982C11.4029 10.612 11.5442 10.2257 11.4814 10.1522C11.3088 9.96825 7.33781 9.98664 7.05529 10.1706ZM17.5399 10.1154C16.8336 10.2073 16.8336 10.2073 16.0802 11.9545C15.8918 12.4143 15.4994 13.1868 15.2326 13.7017C14.9501 14.1983 14.4949 15.1179 14.2124 15.7248C13.9299 16.3318 13.616 16.9571 13.5218 17.1042C13.4276 17.2513 13.2079 17.6743 13.0353 18.0238C12.4859 19.1824 12.0308 20.1204 11.7011 20.7825C11.1361 21.9044 10.728 22.732 8.90735 26.4471L7.11807 30.0703L7.40059 30.714C7.55755 31.0634 7.98132 31.9278 8.34232 32.6451C8.68762 33.344 9.03292 34.1164 9.0957 34.3371C9.15848 34.5762 9.26835 34.7601 9.33113 34.7601C9.39391 34.7601 9.59796 35.1096 9.802 35.5326C9.99034 35.974 10.2886 36.5625 10.4612 36.8752C10.6182 37.1694 10.8536 37.666 10.9792 37.9787C11.1047 38.2729 11.4186 38.8799 11.6855 39.3213L12.172 40.0937H31.6501L31.9169 39.542C32.0582 39.2477 32.2308 38.9902 32.3093 38.9902C32.3721 38.9902 32.4192 38.8983 32.4192 38.7879C32.4192 38.6776 32.6546 38.1074 32.9528 37.5373C33.2353 36.9671 33.6748 36.0843 33.9102 35.5878C34.1457 35.0728 34.8206 33.7118 35.4013 32.5532C38.9799 25.3988 38.9171 25.5459 38.6816 25.362C38.5561 25.2701 38.2579 25.2333 38.0067 25.2885C37.7556 25.3436 36.8296 25.3804 35.9506 25.3804H34.334L33.3609 27.3483C32.8272 28.4518 31.7913 30.5117 31.0693 31.9462C30.3474 33.3808 29.7509 34.6314 29.7509 34.7418C29.7509 35.2935 29.0289 35.3487 21.6992 35.3303C17.634 35.3119 14.3066 35.2935 14.2909 35.2567C13.8828 34.6498 11.8581 30.3645 11.8581 30.1438C11.8581 29.9599 12.172 29.1875 12.5644 28.4518C12.9568 27.6978 13.2707 27.0173 13.2707 26.9621C13.2707 26.8885 13.4433 26.5575 13.6631 26.2264C13.8828 25.8954 14.0555 25.5643 14.0555 25.4908C14.0555 25.4172 14.4165 24.6631 14.8402 23.7987C15.2797 22.9343 15.625 22.2171 15.625 22.1803C15.625 22.1067 17.4143 18.5204 18.0578 17.3249C18.2932 16.9019 18.6542 16.1662 18.8583 15.688C19.078 15.2099 19.6117 14.1431 20.0354 13.2971C20.4592 12.4511 20.8045 11.7155 20.8045 11.6419C20.8045 11.5867 20.9929 11.2557 21.2126 10.9062C21.4323 10.5568 21.5736 10.2257 21.5265 10.1522C21.4009 10.005 18.4973 9.98664 17.5399 10.1154Z" fill="white"/>
<path d="M24.2733 15.6144C24.0536 15.9087 23.6926 16.5524 23.4728 17.0306C22.9549 18.226 22.484 19.2192 18.5915 27.0724C18.2462 27.7345 17.9794 28.3598 17.9794 28.4334C17.9794 28.5069 17.8225 28.7644 17.6498 28.9851C17.226 29.5185 17.3516 30.0702 17.8695 29.9047C18.0579 29.8495 20.1611 29.7943 22.5468 29.7943H26.8631L27.2084 29.0035C27.6478 28.0104 28.1972 26.8885 28.5582 26.2632C29.0447 25.3987 28.9035 25.3252 26.5962 25.3068C24.5401 25.2884 24.493 25.2884 24.4459 24.8838C24.4146 24.6263 24.7128 23.8355 25.215 22.8607C25.6702 21.9779 26.1724 20.948 26.3294 20.5618L26.6119 19.8629H33.9888C38.619 19.8629 41.3657 19.7893 41.3657 19.679C41.3657 19.4766 39.545 15.8535 39.1997 15.3937C38.98 15.0994 38.462 15.0811 31.8228 15.0811L24.6814 15.0994L24.2733 15.6144Z" fill="white"/>
</g>
<defs>
<clipPath id="clip0_20_689">
<rect width="40.9677" height="40.0937" fill="white" transform="translate(0.168457)"/>
</clipPath>
</defs>
</svg>
