<svg width="447" height="626" viewBox="0 0 447 626" fill="none" xmlns="http://www.w3.org/2000/svg">
<path d="M394.493 281.962C350.432 317.713 296.157 274.943 270.147 247.375C244.136 219.807 256.238 217.88 300.299 182.129C344.36 146.377 401.164 139.744 427.175 167.312C453.186 194.88 438.553 246.21 394.493 281.962Z" fill="black"/>
<path d="M394.493 281.962C350.432 317.713 296.157 274.943 270.147 247.375C244.136 219.807 256.238 217.88 300.299 182.129C344.36 146.377 401.164 139.744 427.175 167.312C453.186 194.88 438.553 246.21 394.493 281.962Z" fill="black"/>
<path d="M394.493 281.962C350.432 317.713 296.157 274.943 270.147 247.375C244.136 219.807 256.238 217.88 300.299 182.129C344.36 146.377 401.164 139.744 427.175 167.312C453.186 194.88 438.553 246.21 394.493 281.962Z" fill="black"/>
<path d="M305.752 236.7C316.729 300.354 326.311 252.244 292.109 249.287C257.907 246.33 256.943 234.223 182.418 209.289C171.441 145.635 189.746 113.133 223.947 116.09C258.149 119.047 294.774 173.046 305.752 236.7Z" fill="black"/>
<path d="M305.752 236.7C316.729 300.354 326.311 252.244 292.109 249.287C257.907 246.33 256.943 234.223 182.418 209.289C171.441 145.635 189.746 113.133 223.947 116.09C258.149 119.047 294.774 173.046 305.752 236.7Z" fill="black"/>
<path d="M305.752 236.7C316.729 300.354 326.311 252.244 292.109 249.287C257.907 246.33 256.943 234.223 182.418 209.289C171.441 145.635 189.746 113.133 223.947 116.09C258.149 119.047 294.774 173.046 305.752 236.7Z" fill="black"/>
<path d="M392.171 320.047C426.778 338.486 443.851 383.265 430.305 420.063L359.166 613.322L74.5108 461.655C39.9043 443.216 22.831 398.438 36.3766 361.639L107.516 168.38L392.171 320.047Z" stroke="black" stroke-width="18"/>
<path d="M209.18 267.695L141.666 451.103L119.179 439.122L186.693 255.713L209.18 267.695ZM382.821 360.212L374.599 382.547L315.045 350.816L255.753 511.89L233.266 499.908L292.558 338.835L233.004 307.104L241.225 284.769L382.821 360.212Z" fill="black"/>
</svg>
