<svg width="26" height="22" viewBox="0 0 26 22" fill="none" xmlns="http://www.w3.org/2000/svg">
<path d="M12.8414 0.293031C5.74649 0.290599 0 5.15938 0 11.1687C0 15.9208 3.59479 19.9603 8.60109 21.4438C9.2753 21.5873 9.17201 21.1811 9.17201 20.9039V19.0191C5.27886 19.4058 5.12106 17.2219 4.85999 16.8571C4.33211 16.0935 3.08411 15.8989 3.45708 15.5341C4.34358 15.1474 5.2473 15.6314 6.29446 16.9422C7.05186 17.8931 8.52937 17.7326 9.27816 17.5745C9.44169 17.003 9.79171 16.4923 10.2737 16.0959C6.23995 15.483 4.55875 13.3964 4.55875 10.9158C4.55875 9.712 5.02639 8.60546 5.94445 7.71294C5.35919 6.2416 5.99896 4.98185 6.08503 4.79459C7.75189 4.66812 9.48473 5.80628 9.61957 5.89626C10.5663 5.67982 11.6479 5.56552 12.8586 5.56552C14.075 5.56552 15.1595 5.68468 16.1149 5.90356C16.439 5.69441 18.0457 4.71676 19.5949 4.83593C19.6781 5.02319 20.3035 6.25376 19.7527 7.70564C20.6822 8.6006 21.1556 9.71687 21.1556 10.9231C21.1556 13.4086 19.4629 15.4976 15.4177 16.1008C15.7642 16.3896 16.0393 16.7341 16.227 17.1141C16.4147 17.494 16.5111 17.9019 16.5108 18.3138V21.0498C16.5337 21.2687 16.5108 21.4851 16.9411 21.4851C22.022 20.0332 25.6799 15.9646 25.6799 11.1712C25.6799 5.15938 19.9306 0.293031 12.8414 0.293031Z" fill="white"/>
</svg>
