<svg width="35" height="45" viewBox="0 0 35 45" fill="none" xmlns="http://www.w3.org/2000/svg">
<path d="M17.4844 1.90031e-06C7.82422 -0.00507287 0 10.1546 0 22.6944C0 32.6105 4.89453 41.0396 11.7109 44.1352C12.6289 44.4347 12.4883 43.5872 12.4883 43.0086V39.0757C7.1875 39.8826 6.97266 35.3255 6.61719 34.5642C5.89844 32.9708 4.19922 32.5648 4.70703 31.8036C5.91406 30.9967 7.14453 32.0066 8.57031 34.7419C9.60156 36.7261 11.6133 36.3912 12.6328 36.0613C12.8555 34.8687 13.332 33.803 13.9883 32.9758C8.49609 31.697 6.20703 27.3428 6.20703 22.1666C6.20703 19.6546 6.84375 17.3456 8.09375 15.4831C7.29688 12.4129 8.16797 9.78415 8.28516 9.39339C10.5547 9.12951 12.9141 11.5045 13.0977 11.6923C14.3867 11.2406 15.8594 11.0021 17.5078 11.0021C19.1641 11.0021 20.6406 11.2508 21.9414 11.7075C22.3828 11.2711 24.5703 9.231 26.6797 9.47966C26.793 9.87042 27.6445 12.4383 26.8945 15.4679C28.1602 17.3354 28.8047 19.6647 28.8047 22.1818C28.8047 27.3682 26.5 31.7274 20.9922 32.986C21.4639 33.5887 21.8385 34.3075 22.0941 35.1004C22.3496 35.8933 22.481 36.7444 22.4805 37.604V43.3131C22.5117 43.7699 22.4805 44.2215 23.0664 44.2215C29.9844 41.1919 34.9648 32.7018 34.9648 22.6994C34.9648 10.1546 27.1367 1.90031e-06 17.4844 1.90031e-06Z" fill="black"/>
</svg>
