<svg width="25" height="22" viewBox="0 0 25 22" fill="none" xmlns="http://www.w3.org/2000/svg">
<path d="M12.4999 0.0679321C5.59633 0.0679321 0 4.81187 0 10.664C0 16.5161 5.59633 21.26 12.4999 21.26C19.4036 21.26 24.9999 16.5161 24.9999 10.664C24.9999 4.81187 19.4036 0.0679321 12.4999 0.0679321ZM9.44006 15.0558H6.90882V8.15073H9.44006V15.0558ZM8.15881 7.30304C7.35934 7.30304 6.84241 6.82291 6.84241 6.22909C6.84241 5.62313 7.37496 5.15734 8.19137 5.15734C9.00777 5.15734 9.50777 5.62313 9.52339 6.22909C9.52339 6.82291 9.00777 7.30304 8.15881 7.30304ZM18.6848 15.0558H16.1536V11.2291C16.1536 10.3384 15.7864 9.73351 14.871 9.73351C14.1718 9.73351 13.7564 10.143 13.5729 10.537C13.5051 10.6772 13.4882 10.8759 13.4882 11.0735V15.0547H10.9557V10.3527C10.9557 9.49068 10.9231 8.76993 10.8893 8.14962H13.0885L13.2044 9.10878H13.2551C13.5885 8.65845 14.4049 7.99399 15.7708 7.99399C17.4361 7.99399 18.6848 8.93991 18.6848 10.973V15.0558Z" fill="white"/>
</svg>
