<svg width="27" height="22" viewBox="0 0 27 22" fill="none" xmlns="http://www.w3.org/2000/svg">
<path d="M12.579 4.91628C14.5684 4.91628 16.443 5.66386 17.8167 6.83253V6.83598C17.8167 6.27477 18.2622 5.85024 18.8778 5.85024H19.0342C20.0056 5.85024 20.2003 6.62682 20.2003 6.87187L20.2043 15.5937C20.1368 16.1653 20.9006 16.4607 21.3249 16.0935C22.9739 14.6556 24.9502 8.69425 20.298 5.24278C15.9593 2.02119 10.136 2.55341 7.03992 4.36197C3.74922 6.28927 1.64581 10.5463 3.68896 14.5472C5.92022 18.9092 12.2988 20.2104 16.0952 18.9126C18.0171 18.2548 18.903 20.4541 16.9055 21.174C13.8949 22.2626 5.50491 22.1515 1.58637 16.3993C-1.06101 12.5136 -0.920948 5.67836 6.10344 2.13716C11.4723 -0.573618 18.5561 0.17742 22.8265 3.95677C27.289 7.91145 27.0309 15.3107 22.6742 18.1871C20.7011 19.4952 17.7711 18.223 17.7923 16.3171L17.7703 15.6959C16.3965 16.8494 14.5684 17.5258 12.579 17.5258C8.64333 17.5258 5.17837 14.588 5.17837 11.2552C5.17837 7.8866 8.64333 4.91766 12.579 4.91766V4.91628ZM17.5293 11.0143C17.3803 8.57275 15.2426 7.10243 12.6596 7.10243H12.5619C9.58469 7.10243 7.93079 9.09047 7.93079 11.3443C7.93079 13.8714 9.92834 15.4674 12.5497 15.4674C15.4755 15.4674 17.3965 13.6526 17.5366 11.5058L17.5293 11.0143Z" fill="white"/>
</svg>
