<svg width="39" height="50" viewBox="0 0 39 50" fill="none" xmlns="http://www.w3.org/2000/svg">
<path d="M19.2 0C8.596 0 0 11.1675 0 24.9436C0 38.7197 8.596 49.8872 19.2 49.8872C29.804 49.8872 38.4 38.7197 38.4 24.9436C38.4 11.1675 29.804 0 19.2 0ZM14.5 35.2822H10.612V19.0273H14.5V35.2822ZM12.532 17.0318C11.304 17.0318 10.51 15.9015 10.51 14.5037C10.51 13.0772 11.328 11.9807 12.582 11.9807C13.836 11.9807 14.604 13.0772 14.628 14.5037C14.628 15.9015 13.836 17.0318 12.532 17.0318ZM28.7 35.2822H24.812V26.2739C24.812 24.1771 24.248 22.7532 22.842 22.7532C21.768 22.7532 21.13 23.7172 20.848 24.6448C20.744 24.9748 20.718 25.4425 20.718 25.9076V35.2796H16.828V24.2109C16.828 22.1816 16.778 20.4849 16.726 19.0247H20.104L20.282 21.2826H20.36C20.872 20.2225 22.126 18.6583 24.224 18.6583C26.782 18.6583 28.7 20.8851 28.7 25.6711V35.2822Z" fill="black"/>
</svg>
