<svg width="37" height="47" viewBox="0 0 37 47" fill="none" xmlns="http://www.w3.org/2000/svg">
<path d="M17.8607 9.57071C20.6854 9.57071 23.3471 11.1975 25.2977 13.7406V13.7481C25.2977 12.5269 25.9301 11.6031 26.8043 11.6031H27.0263C28.4057 11.6031 28.682 13.293 28.682 13.8262L28.6878 32.8057C28.5918 34.0494 29.6764 34.6923 30.2788 33.8932C32.6202 30.7643 35.4264 17.7919 28.8208 10.2812C22.6603 3.27078 14.3919 4.42892 9.99586 8.3645C5.32346 12.5585 2.33686 21.8221 5.23789 30.5284C8.40602 40.0204 17.4629 42.8519 22.8534 40.0279C25.5821 38.5964 26.8401 43.3822 24.0038 44.9489C19.7292 47.3177 7.81633 47.0759 2.25246 34.5586C-1.50651 26.1032 -1.30764 11.2291 8.66617 3.52314C16.2893 -2.37572 26.3475 -0.741406 32.4109 7.48275C38.7472 16.0885 38.3806 32.1898 32.1947 38.4492C29.3931 41.2957 25.2329 38.5273 25.263 34.3799L25.2318 33.028C23.2812 35.538 20.6854 37.0101 17.8607 37.0101C12.2725 37.0101 7.35267 30.6171 7.35267 23.3648C7.35267 16.0344 12.2725 9.57372 17.8607 9.57372V9.57071ZM24.8895 22.8405C24.6779 17.5275 21.6428 14.328 17.9751 14.328H17.8364C13.6091 14.328 11.2608 18.6541 11.2608 23.5585C11.2608 29.0578 14.0971 32.5308 17.819 32.5308C21.9735 32.5308 24.701 28.5817 24.8999 23.91L24.8895 22.8405Z" fill="black"/>
</svg>
